# xmcd CD database file
#
# Track frame offsets:
#	150
#	24460
#	41273
#	67055
#	85017
#	112106
#	139547
#	169396
#	205885
#
# Disc length: 3229 seconds
#
# Revision: 1
# Processed by: cddbd v1.5PL3 Copyright (c) Steve Scherf et al.
# Submitted via: CDex 1.50
#
DISCID=780c9b09
DTITLE=Edwin Bonilla - Soy La Candela
DYEAR=1900
DGENRE=Salsa
TTITLE0=Donde Estaras Metida
TTITLE1=Yo Soy La Candela
TTITLE2=Cuenta Bien
TTITLE3=Carmela
TTITLE4=Con Tu Movimiento
TTITLE5=Con Un Solo Galpo
TTITLE6=Chevere Que Chevere
TTITLE7=Recordando Las Descargas
TTITLE8=Recordando Las Descargas
EXTD=
EXTT0=
EXTT1=
EXTT2=
EXTT3=
EXTT4=
EXTT5=
EXTT6=
EXTT7=
EXTT8=
PLAYORDER=
